
<svg width="183px" height="61px" viewBox="0 0 183 61" version="1.1" xmlns="http://www.w3.org/2000/svg" xmlns:xlink="http://www.w3.org/1999/xlink">
    <!-- Generator: Sketch 45.2 (43514) - http://www.bohemiancoding.com/sketch -->
    <desc>Created with Sketch.</desc>
    <defs>
        <polygon id="path-1" points="0 0.176129442 0 32.2536538 32.3098681 32.2536538 32.3098681 0.176129442"></polygon>
    </defs>
    <g id="Page-1" stroke="none" stroke-width="1" fill="none" fill-rule="evenodd">
        <g id="Adyax-CSS-Task" transform="translate(-509.000000, -53.000000)">
            <g id="/logo" transform="translate(478.000000, 53.000000)">
                <g id="Page-1" transform="translate(31.000000, 0.000000)">
                    <polygon id="Fill-1" fill="#FFD92F" points="176.222222 48.4727273 183 48.4727273 183 41.7090909 176.222222 41.7090909"></polygon>
                    <g id="Group-18" transform="translate(0.000000, 0.217564)">
                        <path d="M174.527621,20.0184448 C173.735613,20.0184448 173.106342,19.3904287 173.106342,18.6 C173.106342,17.8092578 173.735613,17.1812417 174.527621,17.1812417 C175.324027,17.1812417 175.948899,17.8092578 175.948899,18.6 C175.948899,19.3904287 175.324027,20.0184448 174.527621,20.0184448 M174.527621,16.9090909 C173.594553,16.9090909 172.833333,17.6687929 172.833333,18.6 C172.833333,19.5308936 173.594553,20.2909091 174.527621,20.2909091 C175.460688,20.2909091 176.222222,19.5308936 176.222222,18.6 C176.222222,17.6687929 175.460688,16.9090909 174.527621,16.9090909" id="Fill-2" fill="#FFFFFF"></path>
                        <path d="M174.611571,18.1997665 C174.73938,18.1997665 174.864145,18.2471514 174.946308,18.3287588 L175.092593,18.2208264 C174.976956,18.1076291 174.791112,18.0363636 174.611571,18.0363636 C174.252272,18.0363636 173.962963,18.2866389 173.962963,18.600094 C173.962963,18.9135492 174.252272,19.1636364 174.611571,19.1636364 C174.791112,19.1636364 174.976956,19.0899265 175.092593,18.9793616 L174.946308,18.8687967 C174.864145,18.9504041 174.73938,18.9977891 174.611571,18.9977891 C174.355736,18.9977891 174.154676,18.8240443 174.154676,18.600094 C174.154676,18.3735113 174.355736,18.1997665 174.611571,18.1997665" id="Fill-4" fill="#FFFFFF"></path>
                        <g id="Group-8" transform="translate(71.166667, 16.909091)" fill="#000000">
                            <polygon id="Fill-6" points="19.5653505 13.5306827 16.4000596 21.9412645 13.4831043 13.3452464 8.82808166 0.173346364 0.0149906551 0.173346364 12.2417084 30.1658464 6.531683 43.4000282 14.8483853 43.4000282 33.5301358 0.173346364 25.1514909 0.173346364"></polygon>
                        </g>
                        <g id="Group-11" transform="translate(0.000000, 16.909091)">
                            <mask id="mask-2" fill="white">
                                <use xlink:href="#path-1"></use>
                            </mask>
                            <g id="Clip-10"></g>
                            <path d="M16.1841658,25.2182261 C11.1600336,25.2182261 7.21749133,21.2310822 7.21749133,16.2147483 C7.21749133,11.1989878 11.1600336,7.21184396 16.1841658,7.21184396 C21.0176622,7.21184396 25.0238441,11.1989878 25.0238441,16.2147483 C25.0238441,21.2310822 21.0176622,25.2182261 16.1841658,25.2182261 M31.038208,0.176416204 L31.0379252,0.176129442 L25.0645734,0.176129442 L25.0645734,2.78423311 C22.5396379,1.13420249 19.4993634,0.176416204 16.1855801,0.176416204 C7.02035008,0.176416204 -8.48527652e-05,7.2755052 -8.48527652e-05,16.2147483 C-8.48527652e-05,25.1545648 7.02035008,32.2536538 16.1855801,32.2536538 C19.4993634,32.2536538 22.5396379,31.2958676 25.0645734,29.6455502 L25.0645734,32.2536538 L31.0373595,32.2536538 L31.0410365,32.2504995 C31.0410365,32.2504995 32.2784726,32.2791757 32.3098681,31.0082449 L32.3098681,1.46541301 C32.3098681,0.14429882 31.038208,0.176416204 31.038208,0.176416204" id="Fill-9" fill="#000000" mask="url(#mask-2)"></path>
                        </g>
                        <path d="M120.335237,41.5500084 C115.241238,41.5500084 111.243871,37.6267394 111.243871,32.690768 C111.243871,27.755361 115.241238,23.8320919 120.335237,23.8320919 C125.235948,23.8320919 129.298128,27.755361 129.298128,32.690768 C129.298128,37.6267394 125.235948,41.5500084 120.335237,41.5500084 M135.395841,16.9093731 L135.395554,16.9090909 L129.339136,16.9090909 L129.339136,19.4754123 C126.779376,17.8518154 123.696536,16.9093731 120.336671,16.9093731 C111.043988,16.9093731 103.925926,23.8947333 103.925926,32.690768 C103.925926,41.487367 111.043988,48.4727273 120.336671,48.4727273 C123.696536,48.4727273 126.779376,47.5302849 129.339136,45.9064059 L129.339136,48.4727273 L135.394981,48.4727273 L135.398709,48.4696234 C135.398709,48.4696234 136.653353,48.4978403 136.685185,47.24727 L136.685185,18.1777199 C136.685185,16.8777702 135.395841,16.9093731 135.395841,16.9093731" id="Fill-12" fill="#000000"></path>
                        <path d="M51.4278294,41.5125088 C46.333831,41.5125088 42.3364632,37.5679878 42.3364632,32.6052788 C42.3364632,27.6431372 46.333831,23.6986163 51.4278294,23.6986163 C56.328541,23.6986163 60.3907201,27.6431372 60.3907201,32.6052788 C60.3907201,37.5679878 56.328541,41.5125088 51.4278294,41.5125088 M60.431729,0 L60.431729,19.3183369 C57.8719683,17.6859452 54.7891285,16.7383978 51.4292633,16.7383978 C42.1365805,16.7383978 35.0185185,23.761597 35.0185185,32.6052788 C35.0185185,41.4495281 42.1365805,48.4727273 51.4292633,48.4727273 C54.7891285,48.4727273 57.8719683,47.5251798 60.431729,45.8925044 L60.431729,48.4727273 L66.4875735,48.4727273 L66.4913016,48.4696066 C66.4913016,48.4696066 67.7459457,48.4979763 67.7777778,47.2406319 L67.7777778,5.34541602 C67.7777778,2.31950544 60.431729,0 60.431729,0" id="Fill-14" fill="#000000"></path>
                        <polygon id="Fill-16" fill="#000000" points="156.453418 27.3251473 149.526353 16.9090909 140.074074 16.9090909 140.074074 17.0987098 151.209448 32.6909091 140.074074 48.2831084 140.074074 48.4727273 149.526353 48.4727273 156.453704 38.0566708 163.380769 48.4727273 172.833333 48.4727273 172.833333 48.2831084 161.69796 32.6909091 172.833333 17.0987098 172.833333 16.9090909 163.380769 16.9090909"></polygon>
                    </g>
                </g>
            </g>
        </g>
    </g>
</svg>